<?xml version="1.0" ?><!DOCTYPE svg  PUBLIC '-//W3C//DTD SVG 1.0//EN'  'http://www.w3.org/TR/2001/REC-SVG-20010904/DTD/svg10.dtd'><svg enable-background="new 0 0 22 32" height="32" overflow="visible" viewBox="0 0 22 32" width="22" xml:space="preserve" xmlns="http://www.w3.org/2000/svg" xmlns:xlink="http://www.w3.org/1999/xlink"><g><g id="Bravery_Medal_1_"><g id="Bravery_Medal"><g id="Medal_x5F_holder"><rect fill="#2B396D" height="2" width="22"/><rect fill="#383F87" height="14" width="4" x="9" y="2"/><rect fill="#E6E6E6" height="17" width="4" x="5" y="2"/><rect fill="#E6E6E6" height="17" width="4" x="13" y="2"/><polygon fill="#383F87" points="1,2 1,16 4,19 5,19 5,2 "/><polygon fill="#383F87" points="17,2 17,19 18,19 21,16 21,2 "/><rect fill="#38447E" height="1" width="4" x="1" y="2"/><rect fill="#D1D3D4" height="1" width="4" x="5" y="2"/><rect fill="#D1D3D4" height="1" width="4" x="13" y="2"/><rect fill="#38447E" height="1" width="4" x="9" y="2"/><rect fill="#38447E" height="1" width="4" x="17" y="2"/></g><circle cx="11" cy="23" fill="#F5B400" id="Medal_x5F_out" r="9"/><circle cx="11" cy="23" fill="#FED049" id="Medal_x5F_inner" r="7"/><path d="M15,21l-2.5,2l1,3L11,24.25L8.5,26l3.865,3.865        c2.912-0.576,5.17-2.96,5.566-5.935L15,21z" fill="#FAC730" id="Star_Shadow"/><polygon fill="#F5B400" id="Star" points="15,21 12,21 11,18 10,21 7,21 9.5,23 8.5,26 11,24.25 13.5,26         12.5,23 "/><path d="M8,17c-0.553,0-1-0.447-1-1c0,0.553-0.447,1-1,1        c0.553,0,1,0.447,1,1C7,17.447,7.447,17,8,17z" fill="#F9F9F9" id="Reflection"/><path d="M16.5,28c-0.276,0-0.5-0.224-0.5-0.5        c0,0.276-0.224,0.5-0.5,0.5c0.276,0,0.5,0.224,0.5,0.5C16,28.224,16.224,28,16.5,28z" fill="#F9F9F9" id="Reflection_x5F_2"/></g></g></g></svg>