<?xml version="1.0" ?><svg height="48px" viewBox="0 0 48 48" width="48px" xmlns="http://www.w3.org/2000/svg" xmlns:xlink="http://www.w3.org/1999/xlink"><g><circle cx="24" cy="24" fill="#FFD764" r="23"/><path d="M14,23c-2.75684,0-5-2.24316-5-5s2.24316-5,5-5s5,2.24316,5,5S16.75684,23,14,23z" fill="#FFFFFF"/><path d="M34,23c-2.75684,0-5-2.24316-5-5s2.24316-5,5-5s5,2.24316,5,5S36.75684,23,34,23z" fill="#FFFFFF"/><path d="M14,23c-1.6543,0-3-1.3457-3-3s1.3457-3,3-3s3,1.3457,3,3S15.6543,23,14,23z" fill="#444444"/><path d="M34,23c-1.6543,0-3-1.3457-3-3s1.3457-3,3-3s3,1.3457,3,3S35.6543,23,34,23z" fill="#444444"/><path d="M34,29c-2.76141,0-5,2.23859-5,5v5v6c0,0.51044,0.19708,0.97107,0.51178,1.32446  c3.56238-0.8764,6.79559-2.58319,9.48822-4.90283V39v-5C39,31.23859,36.76141,29,34,29z" fill="#DDB35F"/><path d="M14,29c-2.76141,0-5,2.23859-5,5v5v2.42755c2.69159,2.31879,5.92334,4.02521,9.48413,4.90192  C18.80139,45.97546,19,45.51276,19,45v-6v-5C19,31.23859,16.76141,29,14,29z" fill="#DDB35F"/></g></svg>