<?xml version="1.0" ?><svg height="32" id="svg2" version="1.1" viewBox="0 0 32 32.000001" width="32" xmlns="http://www.w3.org/2000/svg" xmlns:cc="http://creativecommons.org/ns#" xmlns:dc="http://purl.org/dc/elements/1.1/" xmlns:inkscape="http://www.inkscape.org/namespaces/inkscape" xmlns:rdf="http://www.w3.org/1999/02/22-rdf-syntax-ns#" xmlns:sodipodi="http://sodipodi.sourceforge.net/DTD/sodipodi-0.dtd" xmlns:svg="http://www.w3.org/2000/svg"><defs id="defs4"><pattern height="6" id="EMFhbasepattern" patternUnits="userSpaceOnUse" width="6" x="0" y="0"/><pattern height="6" id="EMFhbasepattern-8" patternUnits="userSpaceOnUse" width="6" x="0" y="0"/></defs><g id="layer1" transform="translate(0,-1020.3622)"><g id="g5697" transform="matrix(0.8660254,0.5,-0.5,0.8660254,519.97788,131.44578)"><g id="g8152" transform="matrix(0.86602541,-0.5,0.5,0.86602541,-156.04062,371.82971)"><g id="g6301" transform="translate(-200.94732,-375.43618)"><path d="m 18.528589,1026.6812 c -2.869755,-1.6568 -6.539302,-0.6736 -8.196153,2.1962 -1.3064996,2.2629 -0.9712478,5.0199 0.635952,6.8985 l -0.92185,1.5967 0.366025,1.366 -1.366025,0.366 0.3660254,1.366 -1.3660254,0.3661 0.3660254,1.366 -1.3504254,0.339 0.3504254,1.393 -1.3660254,0.3661 -0.5,0.866 0.9820508,2.299 2.4820508,-0.299 5.4218504,-9.3909 c 2.4305,0.4526 4.985751,-0.6356 6.292251,-2.8985 1.65685,-2.8698 0.673603,-6.5393 -2.196152,-8.1962 z" id="path6303" style="fill:#dce4ea;fill-opacity:1;stroke:none"/><path d="m 8.2217507,1041.5332 4.0980763,-1.0981 -3.7422001,6.4817 -1.7990381,0.116 -0.7990381,-1.616 z" id="path6305" style="fill:#b0c6d9;fill-opacity:1;stroke:none"/><path d="m 9.1514507,1039.9229 4.0980763,-1.0981 -0.5,0.8661 -4.0980763,1.098 z" id="path6307" style="fill:#b0c6d9;fill-opacity:1;stroke:none"/><path d="m 6.0884461,1047.2117 2.9221935,-0.045 5.4218504,-9.3909 c 2.4305,0.4526 4.985751,-0.6356 6.292251,-2.8985 1.65685,-2.8698 0.673603,-6.5393 -2.196152,-8.1962 -0.292793,-0.169 -0.606439,-0.3039 -0.913025,-0.4186 2.243557,1.8269 2.924253,5.0601 1.431153,7.6462 -1.0082,1.7463 -2.297516,3.8622 -4.728013,3.4096 0,0 -0.941255,0.2145 -1.267205,0.7791 -2.15505,3.7326 -4.8049165,8.1954 -4.8049165,8.1954" id="path6309" style="fill:#b5bfc7;fill-opacity:1;stroke:none"/><path d="m 18.528589,1026.6812 c -2.869755,-1.6568 -6.539302,-0.6736 -8.196153,2.1962 -1.3064996,2.2629 -0.9712478,5.0199 0.635952,6.8985 l -0.92185,1.5967 0.366025,1.366 -1.366025,0.366 0.3660254,1.366 -1.3660254,0.3661 0.3660254,1.366 -1.3504254,0.339 0.3504254,1.393 -1.3660254,0.3661 -0.5,0.866 1.155527,2.1918 0.1781303,-0.6192 -0.3593787,-1.0101 0.5,-0.866 c 0,0 0.960164,-0.069 1.190114,-0.4676 0.22995,-0.3983 -0.174514,-1.2915 -0.174514,-1.2915 0,0 0.9136771,0 1.174514,-0.4406 0.2608507,-0.4436 -0.190114,-1.2644 -0.190114,-1.2644 0,0 0.946614,-0.046 1.1901144,-0.4676 0.2435,-0.4218 -0.190114,-1.2645 -0.190114,-1.2645 0,0 1.016914,-0.1676 1.190114,-0.4676 0.1732,-0.3 -0.190114,-1.2644 -0.190114,-1.2644 0,0 0.257315,-0.5748 0.402586,-1.0297 0.09757,-0.3055 -0.0034,-1.1769 -0.0034,-1.1769 -0.432776,-1.6089 -0.91931,-3.455 0.51454,-5.9385 1.43385,-2.4835 4.954079,-3.2387 7.587037,-2.3911 -0.298258,-0.2646 -0.63425,-0.5106 -0.992969,-0.7177 z" id="path6311" style="fill:#e9f3fd;fill-opacity:1;stroke:none"/><path d="m 18.528589,1026.6812 c -2.869755,-1.6568 -6.539302,-0.6736 -8.196153,2.1962 -1.3064996,2.2629 -0.9712478,5.0199 0.635952,6.8985 l -0.92185,1.5967 0.366025,1.366 -1.366025,0.366 0.3660254,1.366 -1.3660254,0.3661 0.3660254,1.366 -1.3504254,0.339 0.3504254,1.393 -1.3660254,0.3661 -0.5,0.866 0.9820508,2.299 2.4820508,-0.299 5.4218504,-9.3909 c 2.4305,0.4526 4.985751,-0.6356 6.292251,-2.8985 1.65685,-2.8698 0.673603,-6.5393 -2.196152,-8.1962 z" id="path6313" style="fill:none;stroke:#373449;stroke-width:1.00000012;stroke-linecap:round;stroke-linejoin:round;stroke-miterlimit:4;stroke-dasharray:none;stroke-opacity:1"/></g><path d="m -177.43714,652.39477 c -3.31371,0 -6,2.6863 -6,6 0,2.613 1.66883,4.83295 4,5.65625 l 0,1.84375 1,1 -1,1 1,1 -1,1 1,1 -1,0.96875 1,1.03125 -1,1 0,1 2,1.5 2,-1.5 0,-10.84375 c 2.33117,-0.8233 4,-3.04325 4,-5.65625 0,-3.3137 -2.68629,-6 -6,-6 z m 0,3 c 0.82843,0 1.5,0.67157 1.5,1.5 0,0.82843 -0.67157,1.5 -1.5,1.5 -0.82843,0 -1.5,-0.67157 -1.5,-1.5 0,-0.82843 0.67157,-1.5 1.5,-1.5 z" id="path6315" style="fill:#dce4ea;fill-opacity:1;stroke:none"/><path d="m -177.39253,658.41999 c 1.03851,0.17362 1.78849,-0.47883 1.78849,-1.24443 0,-0.7657 -0.26069,-1.37043 -1.36233,-1.65454" id="path6317" style="fill:none;stroke:#b5bfc7;stroke-width:1;stroke-linecap:round;stroke-linejoin:round;stroke-miterlimit:4;stroke-dasharray:none;stroke-opacity:1"/><path d="m -178.93714,670.41512 3,-3 0,7.4844 -1.5,1 -1.5,-1 z" id="path6319" style="fill:#b0c6d9;fill-opacity:1;stroke:none"/><path d="m -178.93714,668.55572 3,-3 0,1 -3,3 z" id="path6321" style="fill:#b0c6d9;fill-opacity:1;stroke:none"/><path d="m -177.94537,676.39952 2.50823,-1.5 0,-10.8437 c 2.33117,-0.8233 4,-3.0433 4,-5.6563 0,-3.3137 -2.68629,-6 -6,-6 -0.33809,0 -0.67716,0.04 -1,0.094 2.85639,0.4603 5.0625,2.92 5.0625,5.9062 0,2.0164 -0.0586,4.4935 -2.38978,5.3168 0,0 -0.7079,0.6564 -0.7079,1.3083 0,4.3101 -0.0635,9.4999 -0.0635,9.4999" id="path6323" style="fill:#b5bfc7;fill-opacity:1;stroke:none"/><path d="m -177.43714,652.39952 c -3.31371,0 -6,2.6863 -6,6 0,2.613 1.66883,4.833 4,5.6563 l 0,1.8437 1,1 -1,1 1,1 -1,1 1,1 -1,0.9688 1,1.0312 -1,1 0,1 2.09662,1.3204 -0.15533,-0.6253 -0.81629,-0.6951 0,-1 c 0,0 0.79688,-0.5401 0.79688,-1 0,-0.4599 -0.79688,-1.0312 -0.79688,-1.0312 0,0 0.79279,-0.4542 0.79688,-0.9688 0.004,-0.5146 -0.79688,-1 -0.79688,-1 0,0 0.79688,-0.513 0.79688,-1 0,-0.487 -0.79688,-1 -0.79688,-1 0,0 0.79688,-0.6536 0.79688,-1 0,-0.3464 -0.79688,-1 -0.79688,-1 0,0 -0.0645,-0.6264 -0.16618,-1.093 -0.0683,-0.3134 -0.5914,-1.0175 -0.5914,-1.0175 -1.17927,-1.177 -2.52367,-2.5325 -2.52367,-5.4002 0,-2.8677 2.67103,-5.2818 5.375,-5.8643 -0.39059,-0.08 -0.80454,-0.125 -1.21875,-0.125 z" id="path6325" style="fill:#e9f3fd;fill-opacity:1;stroke:none"/><path d="m -177.43714,652.39952 c -3.31371,0 -6,2.6863 -6,6 0,2.613 1.66883,4.833 4,5.6563 l 0,1.8437 1,1 -1,1 1,1 -1,1 1,1 -1,0.9688 1,1.0312 -1,1 0,1 2,1.5 2,-1.5 0,-10.8437 c 2.33117,-0.8233 4,-3.0433 4,-5.6563 0,-3.3137 -2.68629,-6 -6,-6 z" id="path6327" style="fill:none;stroke:#373449;stroke-width:1.00000012;stroke-linecap:round;stroke-linejoin:round;stroke-miterlimit:4;stroke-dasharray:none;stroke-opacity:1"/><path d="m 15.723941,4.4444154 a 5.7452426,5.7452426 0 0 1 5.400748,-4.78842242 5.7452426,5.7452426 0 0 1 5.819463,4.26976602 5.7452426,5.7452426 0 0 1 -2.946825,6.588875" id="path6329" style="fill:none;stroke:#373449;stroke-width:0.95754045;stroke-linecap:round;stroke-linejoin:round;stroke-miterlimit:4;stroke-dasharray:none;stroke-opacity:1" transform="matrix(1.0443423,0,0,1.0443423,-200.78711,645.81172)"/><circle cx="21" cy="12" id="path6331" r="2" style="fill:none;stroke:#373449;stroke-width:1.33333337;stroke-linecap:round;stroke-linejoin:round;stroke-miterlimit:4;stroke-dasharray:none;stroke-opacity:1" transform="matrix(0.75,0,0,0.75,-193.18714,647.89942)"/></g></g></g></svg>