<?xml version="1.0" ?><svg enable-background="new 0 0 48 48" id="Layer_1" version="1.1" viewBox="0 0 48 48" xml:space="preserve" xmlns="http://www.w3.org/2000/svg" xmlns:xlink="http://www.w3.org/1999/xlink"><g><g><path d="M24,47.5c-12.4,0-22.5-9.8-22.5-21.9c0-8.4,4.9-16,12.7-19.7c1-0.5,2.1,0,2.6,0.9c0.5,1,0,2.1-0.9,2.6    c-6.4,3-10.4,9.2-10.4,16.1c0,9.9,8.3,17.9,18.6,17.9c10.3,0,18.6-8,18.6-17.9c0-6.9-4.2-13.3-10.8-16.3c-1-0.4-1.4-1.6-1-2.6    c0.4-1,1.6-1.4,2.6-1c7.9,3.6,13.1,11.4,13.1,19.8C46.5,37.7,36.4,47.5,24,47.5z" fill="#454545"/></g><g><line fill="#6EC5A7" x1="24" x2="24" y1="25.1" y2="2.5"/><path d="M24,27.1c-1.1,0-2-0.9-2-2V2.5c0-1.1,0.9-2,2-2c1.1,0,2,0.9,2,2v22.6C26,26.2,25.1,27.1,24,27.1z" fill="#454545"/></g></g></svg>