<?xml version="1.0" ?><svg height="56px" version="1.1" viewBox="0 0 56 56" width="56px" xmlns="http://www.w3.org/2000/svg" xmlns:sketch="http://www.bohemiancoding.com/sketch/ns" xmlns:xlink="http://www.w3.org/1999/xlink"><title/><desc/><defs/><g fill="none" fill-rule="evenodd" id="Page-1" stroke="none" stroke-width="1"><g id="81---Analitics-(Webby)" transform="translate(1.000000, 1.000000)"><path d="M46.534,54 L7.466,54 C3.343,54 0,50.657 0,46.534 L0,7.466 C0,3.343 3.343,0 7.466,0 L46.534,0 C50.657,0 54,3.343 54,7.466 L54,46.534 C54,50.657 50.657,54 46.534,54 L46.534,54 Z" fill="#FFFFFF" id="Fill-64"/><path d="M46.534,54 L7.466,54 C3.343,54 0,50.657 0,46.534 L0,7.466 C0,3.343 3.343,0 7.466,0 L46.534,0 C50.657,0 54,3.343 54,7.466 L54,46.534 C54,50.657 50.657,54 46.534,54 L46.534,54 Z" id="Stroke-65" stroke="#0096E6" stroke-width="2"/><path d="M29.826,33.174 L46,17" id="Stroke-66" stroke="#0096E6" stroke-width="2"/><path d="M37,17 L46,17 L46,26" id="Stroke-67" stroke="#0096E6" stroke-linecap="round" stroke-width="2"/><path d="M31,36 C31,38.209 29.209,40 27,40 C24.791,40 23,38.209 23,36 C23,33.791 24.791,32 27,32 C29.209,32 31,33.791 31,36 L31,36 Z" fill="#D0E8F9" id="Fill-68"/><path d="M31,36 C31,38.209 29.209,40 27,40 C24.791,40 23,38.209 23,36 C23,33.791 24.791,32 27,32 C29.209,32 31,33.791 31,36 L31,36 Z" id="Stroke-69" stroke="#0096E6" stroke-width="2"/><path d="M14,19 C14,21.209 12.209,23 10,23 C7.791,23 6,21.209 6,19 C6,16.791 7.791,15 10,15 C12.209,15 14,16.791 14,19 L14,19 Z" fill="#D0E8F9" id="Fill-70"/><path d="M14,19 C14,21.209 12.209,23 10,23 C7.791,23 6,21.209 6,19 C6,16.791 7.791,15 10,15 C12.209,15 14,16.791 14,19 L14,19 Z" id="Stroke-71" stroke="#0096E6" stroke-width="2"/><path d="M24,33 L12.828,21.828 M7.172,21.828 L0,29" id="Stroke-72" stroke="#0096E6" stroke-width="2"/></g></g></svg>