<?xml version="1.0" encoding="utf-8"?>
<!-- Generator: Adobe Illustrator 16.0.0, SVG Export Plug-In . SVG Version: 6.00 Build 0)  -->
<!DOCTYPE svg PUBLIC "-//W3C//DTD SVG 1.1//EN" "http://www.w3.org/Graphics/SVG/1.1/DTD/svg11.dtd">
<svg version="1.1"
	 id="svg6678" xmlns:rdf="http://www.w3.org/1999/02/22-rdf-syntax-ns#" xmlns:cc="http://creativecommons.org/ns#" xmlns:svg="http://www.w3.org/2000/svg" xmlns:dc="http://purl.org/dc/elements/1.1/"
	 xmlns="http://www.w3.org/2000/svg" xmlns:xlink="http://www.w3.org/1999/xlink" x="0px" y="0px" width="243.476px"
	 height="314.027px" viewBox="137.122 81.053 243.476 314.027" enable-background="new 137.122 81.053 243.476 314.027"
	 xml:space="preserve">
<path id="_x32__copy_5" fill="#FFFFFF" d="M259.215,116.467c53.078,0,94.972,49.601,93.61,109.198l-1.448,63.341
	c-1.283,56.146-42.531,100.527-92.162,100.527s-90.879-44.381-92.163-100.527l-1.448-63.341
	C164.242,166.068,206.137,116.467,259.215,116.467z"/>
<path id="_x32__line" fill="#3B434F" d="M357.09,223.701l-1.518,65.914c-1.345,58.428-44.566,104.611-96.57,104.611
	c-52.005,0-95.227-46.184-96.571-104.611l-1.517-65.914c-1.428-62.018,42.471-113.635,98.088-113.635
	C314.618,110.066,358.517,161.683,357.09,223.701z M258.788,116.894c-52.352,0-93.674,49.213-92.33,108.345l1.428,62.847
	c1.266,55.708,41.95,99.741,90.902,99.741s89.637-44.033,90.902-99.741l1.428-62.847
	C352.462,166.107,311.141,116.894,258.788,116.894z"/>
<path id="_x31__copy_4" opacity="0.0588" fill="#3B434F" enable-background="new    " d="M354.427,234.653l-4.267,69.974
	c0,0-18.95,80.771-92.16,90.334v0.119c-0.145-0.018-0.283-0.041-0.427-0.06c-0.144,0.019-0.282,0.042-0.427,0.06v-0.119
	c-73.209-9.563-92.16-90.334-92.16-90.334l-4.267-69.974c18.998,84.327,34.986,89.601,34.986,89.601
	c-3.235-25.572,23.04-23.041,23.04-23.041c16.014,2.705,28.763,4.013,38.827,4.502c10.064-0.489,22.813-1.797,38.827-4.502
	c0,0,26.275-2.531,23.04,23.041C319.44,324.254,335.429,318.98,354.427,234.653z M306.983,332.926
	c-1.242-15.041-10.313-13.766-10.313-13.766c-16.124,4.744-28.782,7.381-38.671,8.721v-0.1c-9.819-1.328-22.388-3.942-38.4-8.648
	c0,0-9.007-1.265-10.24,13.654c0,0-3.617,14.946,8.534,21.333l15.36,16.214c0,0,10.497,3.326,10.24-9.387
	c0,0-1.068-9.482,5.12-11.094H258v0.281h9.453c6.232,1.625,5.156,11.185,5.156,11.185c-0.259,12.818,10.313,9.464,10.313,9.464
	l15.468-16.348C310.625,347.996,306.983,332.926,306.983,332.926z"/>
<path id="Rounded_Rectangle_3" fill="#3B434F" d="M248.76,355.826h20.48c0.942,0,1.707,0.765,1.707,1.707
	c0,0.943-0.765,1.707-1.707,1.707h-20.48c-0.942,0-1.707-0.764-1.707-1.707C247.053,356.591,247.817,355.826,248.76,355.826z"/>
<path id="_x32_" fill="#3B434F" d="M230.838,335.406l2.376-3.326c7.64,4.37,16.717,6.903,26.455,6.903
	c9.847,0,19.017-2.591,26.709-7.052l2.488,3.437c-8.368,4.845-18.34,7.659-29.047,7.659
	C249.142,343.027,239.193,340.229,230.838,335.406z"/>
<path id="Shape_11_copy" fill="#FFFFFF" d="M160.807,233.313c-0.012,0.001-1.047-0.826-3.003-1.442
	c-0.978-0.307-2.193-0.56-3.578-0.622c-0.346-0.016-0.702-0.02-1.066-0.009c-0.364,0.01-0.737,0.035-1.115,0.075
	c-0.757,0.081-1.54,0.227-2.327,0.453c-3.151,0.905-6.366,3.107-8.253,7.651c-0.948,2.272-1.573,5.131-1.738,8.707
	c-0.042,0.894-0.054,1.833-0.036,2.819s0.067,2.019,0.149,3.101c0.163,2.164,0.458,4.523,0.898,7.094
	c-0.01-0.003-0.41,7.771,2.369,16.701c2.612,8.731,8.885,19.458,20.467,22.523C162.241,278.186,162.2,255.59,160.807,233.313
	L160.807,233.313z"/>
<path id="Shape_3" fill="#3B434F" d="M162.128,234.207c0,0-20.176-6.251-19.466,14.491c0,0,3.004,30.077,4.308,32.849
	c0,0,7.924,17.513,21.001,18.289c12.781,0.758,0,0,0,0l0.159,5.645c0,0-22.984-2.947-27.424-29.436l-3.504-24.062
	c0,0-2.721-31.845,23.669-23.748c25.709,7.888,0,0,0,0L162.128,234.207"/>
<path id="Shape_4" fill="#3B434F" d="M155.468,275.994c0,0-1.129,0.854-2.099,0.854c-0.97,0-2.085-0.854-2.085-0.854l-2.082-20.982
	c0,0,2.873-10.333,15.064-4.873l0.288,6c0,0-10.696-3.793-10.475,0.93C154.292,261.616,155.468,275.994,155.468,275.994z"/>
<path id="Shape_11_copy_x5F_1" fill="#FFFFFF" d="M356.813,233.362c0.012,0,1.052-0.826,3.017-1.441
	c0.982-0.307,2.202-0.56,3.593-0.622c0.348-0.016,0.705-0.019,1.071-0.009c0.365,0.01,0.74,0.035,1.12,0.075
	c0.761,0.081,1.546,0.226,2.337,0.452c3.165,0.905,6.394,3.105,8.289,7.646c0.952,2.271,1.58,5.127,1.746,8.701
	c0.042,0.893,0.055,1.832,0.036,2.817c-0.019,0.985-0.067,2.017-0.149,3.098c-0.164,2.162-0.461,4.52-0.902,7.09
	c0.01-0.003,0.412,7.765-2.379,16.689c-2.624,8.727-8.924,19.445-20.557,22.508C355.373,278.203,355.415,255.624,356.813,233.362
	L356.813,233.362z"/>
<path id="Shape_3_x5F_1" fill="#3B434F" d="M355.482,234.256c0,0,20.265-6.248,19.552,14.481c0,0-3.017,30.056-4.327,32.827
	c0,0-7.959,17.501-21.093,18.276c-12.837,0.758,0,0,0,0l-0.159,5.641c0,0,23.085-2.945,27.544-29.415l3.519-24.046
	c0,0,2.732-31.823-23.772-23.732c-25.822,7.883,0,0,0,0L355.482,234.256"/>
<path id="Shape_4_x5F_1" fill="#3B434F" d="M362.171,276.015c0,0,1.135,0.853,2.108,0.853c0.975,0,2.095-0.853,2.095-0.853
	l2.092-20.968c0,0-2.886-10.327-15.13-4.869l-0.29,5.996c0,0,10.743-3.791,10.521,0.93
	C363.353,261.646,362.171,276.015,362.171,276.015z"/>
<path id="new_vector_shape_done" fill="#3B434F" d="M266.894,274.334c0.497,0,0.995,0,1.493,0
	c3.088,4.192,4.344,10.636,5.973,16.213c0.506,1.729,0.016,4.751-0.426,5.973c-1.618,4.477-6.697,4.396-10.881,6.4
	c-1.123,0.539-1.958,1.468-3.412,1.707c-0.949-0.836-2.094-1-2.561-2.348c-1.152-1.586,0.332-2.577,1.493-3.199
	c2.106-1.13,8.608-2.243,9.387-4.267c0.964-1.096,0.323-4.39,0-5.547c-0.827-2.962-1.224-5.435-2.347-8.106
	c-0.746-1.774-2.057-3.646-1.279-5.76C264.977,275.124,266.367,274.81,266.894,274.334z"/>
<path id="oko" fill="#3B434F" d="M209.507,238.067c4.713,0,8.533,3.82,8.533,8.533s-3.82,8.533-8.533,8.533s-8.534-3.82-8.534-8.533
	S204.794,238.067,209.507,238.067z"/>
<path id="oko_1" fill="#3B434F" d="M309.347,238.067c4.713,0,8.533,3.82,8.533,8.533s-3.82,8.533-8.533,8.533
	s-8.533-3.82-8.533-8.533S304.634,238.067,309.347,238.067z"/>
<path id="Ellipse_3" fill="#EDF1F1" d="M310.627,269.641c5.891,0,10.666,4.775,10.666,10.666s-4.775,10.666-10.666,10.666
	c-5.892,0-10.667-4.775-10.667-10.666S304.735,269.641,310.627,269.641z"/>
<path id="Ellipse_3_copy" fill="#EDF1F1" d="M207.374,269.641c5.891,0,10.667,4.775,10.667,10.666s-4.776,10.666-10.667,10.666
	c-5.891,0-10.667-4.775-10.667-10.666S201.482,269.641,207.374,269.641z"/>
<path id="R_copy" fill="#3B434F" d="M286.327,226.441c0,0,25.544-14.605,43.793,1.486l4.826,0.748c0,0-6.182-22.498-51.2-7.869
	L285,225 M286,225c0,0,25.987-14.926,43.12,3.927l8.826-0.252c0,0-11.008-24.032-56.2-8.869L286,226"/>
<path id="R_copy_3" fill="#3B434F" d="M231.438,226.525c0,0-25.459-14.476-43.647,1.473l-4.811,0.742c0,0,6.162-22.298,51.029-7.799
	l-1.249,4.156 M231.764,225.097c0,0-25.9-14.794-42.976,3.893l-8.797-0.25c0,0,10.972-23.819,56.013-8.791l-4.239,6.139"/>
<path id="Shape_6_copy_3" fill="#3B434F" d="M163.751,229.533c0,0,3.292-51.396,35.01-74.24c0,0,45.797,31.153,117.838,0
	c0,0,31.864,14.513,36.717,74.24h1.711c0,0,9.123-68.413-14.519-95.573c0,0-5.824-20.8-36.718-35.84l-11.101,6.827
	c0,0-7.459-9.127-27.324-20.48c0,0-14.694,6.546-22.202,17.92l-11.955-7.68c0,0-16.704,7.647-26.471,21.333l-17.932,2.56
	l-9.393,17.066c0,0-22.421,18.063-15.373,92.16L163.751,229.533z"/>
<defs>
	<filter id="Adobe_OpacityMaskFilter" filterUnits="userSpaceOnUse" x="158.109" y="81.053" width="202.062" height="148.907">
		<feColorMatrix  type="matrix" values="1 0 0 0 0  0 1 0 0 0  0 0 1 0 0  0 0 0 1 0"/>
	</filter>
</defs>
<mask maskUnits="userSpaceOnUse" x="158.109" y="81.053" width="202.062" height="148.907" id="_1">
	<g id="g6704" filter="url(#Adobe_OpacityMaskFilter)">
		<path id="path6706" fill="#FFFFFF" d="M0,0h512v512H0V0z"/>
		<path id="path6708" d="M163.854,209.053c0,0,5.921-35.721,34.907-57.6c0,0,47.077,32.007,119.117,0.854
			c0,0,26.615,12.517,35.842,57.173l0,0c0,0,5.477-45.931-15.359-74.24c0,0-3.667-18.667-34.561-33.707l-11.521,6.827
			c0,0-7.439-9.126-27.307-20.48c0,0-13.397,6.974-20.906,18.347l-12.8-8.106c0,0-15.407,7.22-25.173,20.907l-17.066,2.56
			l-8.96,16.213c0,0-18.61,14.215-16.64,71.68L163.854,209.053z"/>
	</g>
</mask>
<path id="Shape_6_copy" mask="url(#_1)" fill="#3B434F" d="M166.738,229.96c0,0,4.32-48.047,32.023-71.68
	c0,0,45.797,31.58,117.838,0.427c0,0,28.877,10.673,33.73,70.4l8.11,0.427c0,0,9.123-68.84-14.519-96
	c0,0-8.384-23.787-39.277-38.827l-11.511,6.4c0,0-7.439-8.7-27.307-20.053c0,0-15.531,5.693-23.04,17.067l-11.151-7.253
	c0,0-17.984,8.5-27.75,22.187l-18.785,2.56l-10.246,18.773c0,0-22.421,19.343-15.373,93.44L166.738,229.96z"/>
<path id="new_x5F_vector_x5F_shape_x5F_done_copy" opacity="0.2" fill="#3B434F" enable-background="new    " d="M260.139,103.673
	c0.629,0.467,0.317,0.899,0.182,1.483c-0.204,0.871-0.445,1.733-0.581,2.603c-0.206,1.317-0.394,2.636-0.448,3.936
	c-0.045,1.093-0.025,2.182-0.006,3.264c0.011,0.625,0.117,1.249,0.133,1.875c0.006,0.25,0.074,0.5,0.082,0.754
	c0.015,0.069,0.03,0.138,0.045,0.207c0.01,0.319,0.094,0.624,0.102,0.943c0.053,0.289,0.104,0.578,0.156,0.866
	c0.077,0.458,0.114,0.935,0.254,1.38c0.016,0.114,0.031,0.229,0.047,0.343c0.11,0.354,0.146,0.719,0.259,1.075
	c0.008,0.07,0.016,0.14,0.024,0.21c0.162,0.512,0.234,1.051,0.396,1.56c0.262,0.827,0.477,1.657,0.766,2.481
	c0.191,0.547,0.357,1.12,0.551,1.67c0.344,0.979,0.764,1.936,1.142,2.904c0.229,0.59,0.538,1.135,0.785,1.722
	c0.698,1.662,1.594,3.294,2.451,4.923c0.276,0.526,0.581,1.01,0.888,1.524c0.195,0.328,0.398,0.695,0.58,1.033
	c0.1,0.187,0.225,0.328,0.334,0.509c0.234,0.394,0.49,0.816,0.723,1.212c0.214,0.367,0.455,0.68,0.692,1.037
	c0.255,0.385,0.508,0.818,0.767,1.206c0.449,0.672,0.927,1.322,1.372,1.985c0.462,0.69,0.982,1.301,1.472,1.98
	c0.949,1.318,2.06,2.582,3.082,3.904c0.307,0.396,0.674,0.742,0.979,1.125c0.153,0.191,0.408,0.358,0.512,0.559
	c0.042,0.082,0.066,0.208,0.096,0.3c0.047,0.149,0.034,0.333,0.036,0.491c0.004,0.252,0.016,0.508-0.027,0.772
	c-0.047,0.274-0.221,0.575-0.334,0.845c-0.09,0.217-0.316,0.409-0.444,0.514c-0.107,0.089-0.151,0.172-0.262,0.258
	c-0.285,0.225-0.608,0.409-0.921,0.502c-0.324,0.098-0.742-0.193-0.998-0.5c-0.448-0.537-1.008-1.03-1.438-1.568
	c-0.092-0.115-0.194-0.167-0.285-0.281c-0.496-0.627-1.104-1.218-1.595-1.836c-0.112-0.141-0.234-0.22-0.343-0.361
	c-0.381-0.496-0.827-0.942-1.213-1.447c-0.97-1.267-2.015-2.491-2.891-3.767c-0.205-0.298-0.424-0.534-0.625-0.833
	c-1.419-2.12-2.843-4.203-3.98-6.364c-0.299-0.568-0.629-1.085-0.909-1.656c-0.795-1.62-1.536-3.238-2.217-4.872
	c-0.089-0.215-0.154-0.455-0.237-0.672c-0.371-0.98-0.709-1.949-1.044-2.932c-0.337-0.991-0.529-2.027-0.845-3.021
	c-0.066-0.209-0.087-0.437-0.154-0.652c-0.01-0.077-0.019-0.155-0.027-0.232c-0.074-0.233-0.082-0.481-0.153-0.708
	c-0.171-0.546-0.224-1.136-0.317-1.697c-0.09-0.53-0.211-1.071-0.225-1.611c-0.021-0.098-0.041-0.197-0.062-0.295
	c-0.009-0.351-0.098-0.697-0.107-1.043c-0.015-0.604-0.111-1.206-0.122-1.809c-0.014-0.75-0.043-1.501-0.039-2.251
	c0.004-0.751,0.067-1.485,0.11-2.243c0.117-2.052,0.492-4.113,0.988-6.238c0.18-0.771,0.468-1.524,0.711-2.297
	c0.167-0.532,0.43-1.044,0.617-1.57c0.049-0.137,0.125-0.219,0.178-0.357c0.112-0.296,0.26-0.662,0.534-0.856
	c0.122-0.087,0.405-0.133,0.55-0.091C259.985,103.598,260.049,103.676,260.139,103.673z M240.116,118.381
	c0.454,0.329,0.418,0.81,0.429,1.216c0.011,0.42,0.132,0.839,0.144,1.263c0.049,0.293,0.098,0.586,0.147,0.879
	c0.007,0.237,0.066,0.462,0.105,0.694c0.04,0.239,0.058,0.479,0.131,0.712c0.044,0.264,0.088,0.527,0.132,0.791
	c0.073,0.232,0.081,0.48,0.153,0.708c0.221,0.706,0.306,1.454,0.531,2.159c0.239,0.747,0.413,1.519,0.672,2.259
	c0.339,0.97,0.671,1.946,1.041,2.91c0.189,0.493,0.414,0.954,0.615,1.445c0.154,0.375,0.3,0.785,0.476,1.152
	c0.728,1.524,1.479,3.048,2.278,4.568c0.634,1.204,1.39,2.352,2.083,3.539c0.214,0.366,0.456,0.68,0.693,1.037
	c0.536,0.805,1.106,1.641,1.654,2.458c0.519,0.773,1.142,1.493,1.687,2.25c0.089,0.124,0.192,0.19,0.278,0.315
	c0.277,0.399,0.639,0.784,0.943,1.176c0.153,0.197,0.347,0.334,0.486,0.541c0.304,0.451,0.494,1.292,0.349,1.816
	c-0.251,0.908-1.128,1.52-1.795,1.754c-0.202,0.071-0.516,0.198-0.734,0.133c-0.345-0.103-0.565-0.41-0.767-0.664
	c-0.26-0.327-0.563-0.565-0.815-0.892c-0.466-0.604-1.014-1.144-1.48-1.753c-0.975-1.276-1.974-2.51-2.84-3.809
	c-2.005-3.006-3.669-6.041-4.967-9.158c-0.539-1.294-0.973-2.629-1.406-3.945c-0.154-0.468-0.239-0.97-0.388-1.438
	c-0.204-0.641-0.294-1.302-0.494-1.939c-0.01-0.085-0.021-0.17-0.031-0.254c-0.032-0.143-0.081-0.28-0.105-0.423
	c-0.016-0.121-0.033-0.243-0.049-0.364c-0.076-0.24-0.093-0.488-0.134-0.734c-0.04-0.238-0.102-0.471-0.109-0.716
	c-0.03-0.157-0.06-0.313-0.09-0.47c-0.018-0.64-0.172-1.267-0.185-1.912c-0.003-0.152-0.051-0.313-0.055-0.465
	c-0.015-0.617-0.076-1.235-0.073-1.851c0.003-0.702-0.003-1.416,0.041-2.118c0.017-0.277,0.066-0.538,0.078-0.814
	c0.014-0.304,0.067-0.596,0.107-0.91c0.024-0.187,0.024-0.412,0.08-0.601c0.057-0.191,0.253-0.5,0.434-0.58
	c0.124-0.054,0.362-0.108,0.497-0.071C239.962,118.305,240.025,118.384,240.116,118.381z M224.815,121.57
	c0.511,0.375,0.369,0.847,0.366,1.306c-0.005,0.738,0.069,1.475,0.088,2.209c0.015,0.586,0.165,1.168,0.181,1.754
	c0.035,0.186,0.07,0.372,0.105,0.558c0.009,0.325,0.079,0.745,0.177,1.055c0.009,0.078,0.018,0.155,0.027,0.233
	c0.03,0.18,0.068,0.356,0.123,0.533c0.013,0.099,0.026,0.199,0.039,0.298c0.131,0.419,0.172,0.867,0.305,1.282
	c0.319,0.992,0.572,2.007,0.92,2.998c0.754,2.148,1.788,4.229,2.888,6.319c0.359,0.683,0.807,1.318,1.17,1.997
	c0.155,0.29,0.358,0.524,0.53,0.804c0.47,0.766,1.014,1.529,1.524,2.288c0.707,1.05,1.567,2.007,2.318,3.049
	c0.263,0.365,0.595,0.682,0.851,1.033c0.228,0.313,0.521,0.547,0.765,0.855c0.482,0.611,1.089,1.192,1.601,1.801
	c0.295,0.352,0.646,0.635,0.931,0.975c0.319,0.379,0.72,0.682,1.034,1.048c0.079,0.07,0.159,0.14,0.238,0.209
	c0.32,0.379,0.768,0.715,1.098,1.094c0.141,0.162,0.309,0.237,0.451,0.399c0.463,0.527,1.117,0.954,1.593,1.486
	c0.136,0.152,0.317,0.254,0.438,0.39c0.051,0.037,0.103,0.074,0.154,0.11c0.164,0.183,0.42,0.351,0.586,0.535
	c0.056,0.04,0.111,0.079,0.167,0.119c0.272,0.302,0.691,0.541,0.966,0.845c0.073,0.052,0.146,0.104,0.218,0.156
	c0.35,0.387,0.906,0.664,1.261,1.056c0.159,0.121,0.319,0.241,0.478,0.361c0.078,0.085,0.246,0.16,0.337,0.26
	c0.242,0.266,0.65,0.475,0.913,0.729c0.155,0.15,0.399,0.253,0.53,0.398c0.116,0.127,0.325,0.212,0.427,0.324
	c0.333,0.238,0.667,0.477,1,0.715c0.79,0.564,1.576,1.093,2.34,1.634c0.362,0.256,0.811,0.457,1.034,0.777
	c0.126,0.181,0.176,0.44,0.243,0.637c0.148,0.444,0.21,0.971,0.085,1.454c-0.038,0.147-0.115,0.247-0.17,0.4
	c-0.088,0.247-0.236,0.63-0.5,0.862c-0.171,0.151-0.35,0.354-0.54,0.485c-0.292,0.202-0.612,0.094-0.969-0.054
	c-0.114-0.075-0.229-0.15-0.343-0.226c-0.548-0.235-1.06-0.738-1.609-0.976c-0.106-0.045-0.217-0.16-0.304-0.198
	c-0.183-0.124-0.366-0.248-0.548-0.372c-0.201-0.087-0.381-0.298-0.608-0.396c-0.189-0.083-0.384-0.236-0.57-0.369
	c-0.068-0.049-0.137-0.098-0.206-0.146c-0.183-0.08-0.399-0.247-0.57-0.369c-0.248-0.177-0.496-0.354-0.744-0.532
	c-0.266-0.116-0.562-0.382-0.817-0.564c-0.212-0.151-0.499-0.314-0.658-0.49c-0.146-0.104-0.291-0.208-0.437-0.312
	c-0.304-0.217-0.603-0.431-0.867-0.658c-0.146-0.104-0.291-0.208-0.437-0.312c-0.21-0.232-0.575-0.408-0.784-0.638
	c-0.099-0.07-0.197-0.141-0.295-0.211c-0.152-0.168-0.416-0.316-0.566-0.482c-0.085-0.061-0.171-0.123-0.256-0.184
	c-0.116-0.128-0.322-0.262-0.438-0.39c-0.068-0.049-0.137-0.098-0.206-0.147c-0.4-0.444-0.987-0.78-1.378-1.217
	c-0.122-0.1-0.244-0.2-0.366-0.301c-0.506-0.568-1.189-1.025-1.678-1.585c-0.132-0.152-0.282-0.221-0.412-0.372
	c-0.451-0.524-1.027-0.991-1.461-1.508c-0.071-0.085-0.141-0.105-0.212-0.191c-0.205-0.246-0.469-0.499-0.667-0.748
	c-0.092-0.116-0.192-0.165-0.284-0.28c-0.687-0.867-1.494-1.641-2.16-2.51c-1.178-1.54-2.408-3.043-3.339-4.629
	c-0.211-0.359-0.462-0.66-0.667-1.019c-0.362-0.634-0.758-1.259-1.099-1.907c-0.533-1.014-1.032-2.036-1.517-3.057
	c-0.341-0.718-0.612-1.491-0.892-2.223c-0.23-0.601-0.449-1.186-0.661-1.788c-0.208-0.592-0.357-1.208-0.551-1.806
	c-0.198-0.608-0.278-1.253-0.471-1.864c-0.073-0.232-0.065-0.525-0.138-0.756c-0.179-0.57-0.222-1.19-0.32-1.776
	c-0.419-2.501-0.462-5.063-0.279-7.665c0.042-0.601,0.167-1.169,0.266-1.783c0.045-0.279,0.137-0.635,0.446-0.841
	c0.099-0.066,0.413-0.118,0.528-0.087C224.655,121.491,224.729,121.572,224.815,121.57z"/>
</svg>
